<svg preserveAspectRatio="none" overflow="visible" style="display: block;" width="88" height="16" viewBox="0 0 88 16" fill="none" xmlns="http://www.w3.org/2000/svg">
<g id="fond">
<path id="Vector" d="M15.4829 5.63406L10.6864 4.90408L8.54222 0.352135C8.48365 0.227506 8.38731 0.126615 8.26829 0.0652895C7.96981 -0.0890138 7.6071 0.0395723 7.45786 0.352135L5.3137 4.90408L0.517213 5.63406C0.384974 5.65384 0.26407 5.71912 0.171503 5.81803C0.0595945 5.93848 -0.0020722 6.10053 5.31712e-05 6.26856C0.00217854 6.4366 0.0679221 6.59688 0.182838 6.71418L3.65316 10.2572L2.83328 15.2602C2.81405 15.3766 2.82635 15.4963 2.86878 15.6057C2.91121 15.7151 2.98207 15.8099 3.07333 15.8793C3.16459 15.9488 3.27259 15.99 3.38509 15.9984C3.4976 16.0068 3.6101 15.982 3.70983 15.9269L8.00004 13.5648L12.2902 15.9269C12.4074 15.9922 12.5434 16.0139 12.6737 15.9902C13.0024 15.9308 13.2235 15.6044 13.1668 15.2602L12.3469 10.2572L15.8172 6.71418C15.9117 6.61724 15.974 6.49064 15.9929 6.35216C16.0439 6.00597 15.8135 5.68549 15.4829 5.63406Z" fill="#00497C" fill-opacity="0.15"/>
<path id="Vector_2" d="M33.4829 5.63406L28.6864 4.90408L26.5422 0.352135C26.4837 0.227506 26.3873 0.126615 26.2683 0.0652895C25.9698 -0.0890138 25.6071 0.0395723 25.4579 0.352135L23.3137 4.90408L18.5172 5.63406C18.385 5.65384 18.2641 5.71912 18.1715 5.81803C18.0596 5.93848 17.9979 6.10053 18.0001 6.26856C18.0022 6.4366 18.0679 6.59688 18.1828 6.71418L21.6532 10.2572L20.8333 15.2602C20.8141 15.3766 20.8264 15.4963 20.8688 15.6057C20.9112 15.7151 20.9821 15.8099 21.0733 15.8793C21.1646 15.9488 21.2726 15.99 21.3851 15.9984C21.4976 16.0068 21.6101 15.982 21.7098 15.9269L26 13.5648L30.2902 15.9269C30.4074 15.9922 30.5434 16.0139 30.6737 15.9902C31.0024 15.9308 31.2235 15.6044 31.1668 15.2602L30.3469 10.2572L33.8172 6.71418C33.9117 6.61724 33.974 6.49064 33.9929 6.35216C34.0439 6.00597 33.8135 5.68549 33.4829 5.63406Z" fill="#00497C" fill-opacity="0.15"/>
<path id="Vector_3" d="M51.4829 5.63406L46.6864 4.90408L44.5422 0.352135C44.4837 0.227506 44.3873 0.126615 44.2683 0.0652895C43.9698 -0.0890138 43.6071 0.0395723 43.4579 0.352135L41.3137 4.90408L36.5172 5.63406C36.385 5.65384 36.2641 5.71912 36.1715 5.81803C36.0596 5.93848 35.9979 6.10053 36.0001 6.26856C36.0022 6.4366 36.0679 6.59688 36.1828 6.71418L39.6532 10.2572L38.8333 15.2602C38.8141 15.3766 38.8264 15.4963 38.8688 15.6057C38.9112 15.7151 38.9821 15.8099 39.0733 15.8793C39.1646 15.9488 39.2726 15.99 39.3851 15.9984C39.4976 16.0068 39.6101 15.982 39.7098 15.9269L44 13.5648L48.2902 15.9269C48.4074 15.9922 48.5434 16.0139 48.6737 15.9902C49.0024 15.9308 49.2235 15.6044 49.1668 15.2602L48.3469 10.2572L51.8172 6.71418C51.9117 6.61724 51.974 6.49064 51.9929 6.35216C52.0439 6.00597 51.8135 5.68549 51.4829 5.63406Z" fill="#00497C" fill-opacity="0.15"/>
<path id="Vector_4" d="M69.4829 5.63406L64.6864 4.90408L62.5422 0.352135C62.4837 0.227506 62.3873 0.126615 62.2683 0.0652895C61.9698 -0.0890138 61.6071 0.0395723 61.4579 0.352135L59.3137 4.90408L54.5172 5.63406C54.385 5.65384 54.2641 5.71912 54.1715 5.81803C54.0596 5.93848 53.9979 6.10053 54.0001 6.26856C54.0022 6.4366 54.0679 6.59688 54.1828 6.71418L57.6532 10.2572L56.8333 15.2602C56.8141 15.3766 56.8264 15.4963 56.8688 15.6057C56.9112 15.7151 56.9821 15.8099 57.0733 15.8793C57.1646 15.9488 57.2726 15.99 57.3851 15.9984C57.4976 16.0068 57.6101 15.982 57.7098 15.9269L62 13.5648L66.2902 15.9269C66.4074 15.9922 66.5434 16.0139 66.6737 15.9902C67.0024 15.9308 67.2235 15.6044 67.1668 15.2602L66.3469 10.2572L69.8172 6.71418C69.9117 6.61724 69.974 6.49064 69.9929 6.35216C70.0439 6.00597 69.8135 5.68549 69.4829 5.63406Z" fill="#00497C" fill-opacity="0.15"/>
<path id="Vector_5" d="M87.4829 5.63406L82.6864 4.90408L80.5422 0.352135C80.4837 0.227506 80.3873 0.126615 80.2683 0.0652895C79.9698 -0.0890138 79.6071 0.0395723 79.4579 0.352135L77.3137 4.90408L72.5172 5.63406C72.385 5.65384 72.2641 5.71912 72.1715 5.81803C72.0596 5.93848 71.9979 6.10053 72.0001 6.26856C72.0022 6.4366 72.0679 6.59688 72.1828 6.71418L75.6532 10.2572L74.8333 15.2602C74.8141 15.3766 74.8264 15.4963 74.8688 15.6057C74.9112 15.7151 74.9821 15.8099 75.0733 15.8793C75.1646 15.9488 75.2726 15.99 75.3851 15.9984C75.4976 16.0068 75.6101 15.982 75.7098 15.9269L80 13.5648L84.2902 15.9269C84.4074 15.9922 84.5434 16.0139 84.6737 15.9902C85.0024 15.9308 85.2235 15.6044 85.1668 15.2602L84.3469 10.2572L87.8172 6.71418C87.9117 6.61724 87.974 6.49064 87.9929 6.35216C88.0439 6.00597 87.8135 5.68549 87.4829 5.63406Z" fill="#00497C" fill-opacity="0.15"/>
</g>
</svg>
